<svg height="1" width="338" xmlns="http://www.w3.org/2000/svg">
<!--  <rect x="9" y="0" width="20" height="100%" fill="rgba(255, 255, 0, 1.0)" />
  <rect x="32" y="0" width="20" height="100%" fill="rgba(255, 255, 0, 1.0)" /> -->

<!--
  <rect x="335" y="0" width="2" height="100%" fill="rgba(255, 255, 255, 1.0)" />
  <rect x="0" y="0" width="28" height="100%" fill="rgba(255, 255, 255, 1.0)" />
  <rect x="280" y="0" width="30" height="100%" fill="rgba(255, 255, 255, 1.0)" />
-->

<rect x="0" y="0" width="28" height="100%" fill="rgba(255, 255, 255, 1.0)" />
<rect x="280" y="0" width="28" height="100%" fill="rgba(255, 255, 255, 1.0)" />
  <!--
  <rect x="108" y="0" width="30" height="100%" fill="rgba(255, 0, 0, 1.0)" />
  <rect x="168" y="0" width="30" height="100%" fill="rgba(255, 0, 0, 1.0)" />
  -->
<!--
  <rect x="50" y="0" width="50" height="100%" fill="rgba(0, 255, 0, 1.0)" />
  <rect x="100" y="0" width="50" height="100%" fill="rgba(0, 255, 255, 1.0)" />
  <rect x="150" y="0" width="50" height="100%" fill="rgba(255, 255, 255, 1.0)" />
  <rect x="200" y="0" width="50" height="100%" fill="rgba(255, 0, 255, 1.0)" />
  <rect x="250" y="0" width="50" height="100%" fill="rgba(0, 0, 255, 1.0)" />
  <rect x="300" y="0" width="38" height="100%" fill="rgba(255, 0, 255 1.0)" />
-->
</svg>
